<?xml version="1.0" standalone="no"?>
<!DOCTYPE svg PUBLIC "-//W3C//DTD SVG 20010904//EN"
 "http://www.w3.org/TR/2001/REC-SVG-20010904/DTD/svg10.dtd">
<svg version="1.0" xmlns="http://www.w3.org/2000/svg"
 width="512.000000pt" height="512.000000pt" viewBox="0 0 512.000000 512.000000"
 preserveAspectRatio="xMidYMid meet">

<g transform="translate(0.000000,512.000000) scale(0.100000,-0.100000)"
fill="#000000" stroke="none">
<path d="M723 4815 c-252 -58 -470 -234 -578 -468 -111 -240 -99 -543 29 -771
63 -110 612 -910 640 -931 27 -20 42 -20 909 -25 l882 -5 -227 -187 c-124
-104 -251 -215 -281 -249 -253 -279 -193 -755 121 -962 37 -25 391 -197 787
-382 396 -186 819 -385 940 -442 189 -88 227 -103 271 -103 93 0 68 -31 589
741 202 299 245 410 245 630 0 335 -181 622 -481 763 -111 53 -179 68 -324 73
-186 7 -315 -25 -468 -114 -70 -42 -184 -147 -239 -221 -177 -239 -211 -583
-84 -858 19 -40 32 -74 28 -74 -4 0 -220 100 -481 222 -336 158 -478 230 -489
247 -20 30 -21 83 -2 107 8 10 122 107 253 216 131 109 255 217 274 240 20 24
51 76 70 115 122 264 12 594 -243 730 -119 63 -115 63 -833 63 -403 0 -651 4
-651 9 0 6 50 83 112 173 196 286 250 423 250 638 -1 245 -77 428 -251 600
-78 78 -113 105 -186 142 -146 75 -207 90 -375 94 -101 2 -164 -1 -207 -11z
m405 -178 c177 -63 312 -185 392 -353 87 -186 83 -419 -11 -606 -28 -55 -562
-852 -594 -886 -10 -11 -64 62 -290 395 -153 224 -297 444 -321 489 -59 113
-78 206 -72 352 4 95 10 131 32 190 68 183 184 312 351 392 102 49 164 60 310
56 109 -3 142 -8 203 -29z m3304 -2328 c172 -55 312 -181 394 -354 49 -104 65
-175 65 -295 0 -125 -16 -195 -71 -305 -42 -84 -591 -900 -605 -900 -14 0
-585 845 -615 911 -98 210 -86 453 32 652 45 76 159 189 238 235 161 94 378
115 562 56z"/>
<path d="M793 4376 c-60 -20 -104 -49 -157 -106 -73 -78 -91 -126 -91 -245 0
-93 2 -105 33 -167 75 -152 247 -234 409 -194 341 84 392 538 76 692 -46 23
-73 29 -142 31 -53 2 -102 -2 -128 -11z m204 -171 c67 -34 105 -88 111 -159
11 -130 -75 -225 -204 -226 -175 -1 -267 205 -151 337 65 74 156 91 244 48z"/>
<path d="M447 3738 c-21 -16 -35 -55 -30 -82 8 -39 148 -230 175 -240 51 -18
108 26 108 83 0 19 -132 217 -158 239 -9 6 -30 12 -47 12 -17 0 -39 -6 -48
-12z"/>
<path d="M730 3300 c-32 -32 -30 -80 6 -127 21 -28 32 -33 65 -33 89 0 109
104 31 168 -24 19 -79 15 -102 -8z"/>
<path d="M4098 2045 c-97 -31 -200 -134 -233 -235 -17 -53 -22 -144 -10 -200
21 -99 107 -205 201 -250 196 -91 427 4 504 207 18 48 21 73 18 143 -5 105
-28 160 -97 233 -74 78 -144 110 -251 114 -56 2 -101 -2 -132 -12z m175 -157
c83 -25 147 -114 147 -203 0 -39 -30 -103 -64 -137 -119 -118 -323 -47 -343
119 -11 95 45 187 133 218 49 18 76 18 127 3z"/>
</g>
</svg>
